<?xml version="1.0" standalone="no"?>
<!DOCTYPE svg PUBLIC "-//W3C//DTD SVG 20010904//EN"
 "http://www.w3.org/TR/2001/REC-SVG-20010904/DTD/svg10.dtd">
<svg version="1.0" xmlns="http://www.w3.org/2000/svg"
 width="1554.000000pt" height="1554.000000pt" viewBox="0 0 1554.000000 1554.000000"
 preserveAspectRatio="xMidYMid meet">
<metadata>
Created by potrace 1.14, written by Peter Selinger 2001-2017
</metadata>
<g transform="translate(0.000000,1554.000000) scale(0.100000,-0.100000)"
fill="#000000" stroke="none">
<path d="M2903 14979 c-414 -48 -790 -239 -990 -503 -56 -74 -117 -199 -140
-286 -22 -87 -22 -253 1 -340 90 -347 435 -633 901 -749 231 -57 556 -66 794
-22 672 126 1108 595 1006 1081 -33 158 -107 286 -242 423 -203 205 -513 345
-866 392 -125 16 -344 18 -464 4z"/>
<path d="M10210 13189 c-581 -26 -1272 -100 -1902 -204 l-206 -35 -84 39 c-45
21 -123 51 -173 66 -84 26 -104 28 -313 33 -436 8 -885 -68 -1529 -259 -318
-94 -557 -206 -743 -349 -76 -59 -274 -255 -324 -321 -22 -31 -42 -42 -119
-69 -552 -191 -1386 -542 -1796 -755 -47 -24 -88 -42 -91 -40 -4 2 -42 98 -86
212 -43 116 -88 218 -100 230 -27 27 23 41 -489 -135 -759 -261 -723 -247
-731 -276 -3 -14 40 -140 125 -361 72 -187 131 -345 131 -352 0 -6 -53 -51
-117 -100 -370 -277 -663 -567 -839 -829 -468 -700 -182 -1273 789 -1579 l118
-37 -3 -56 c-3 -64 5 -59 -159 -92 -125 -24 -480 -120 -639 -172 -326 -106
-461 -170 -655 -310 -47 -34 -112 -124 -157 -216 -94 -194 -70 -451 55 -588
60 -67 147 -110 302 -153 322 -89 551 -118 995 -130 l255 -6 5 -1815 5 -1815
23 -59 c173 -456 905 -855 2102 -1145 849 -206 1854 -334 2990 -381 316 -13
1215 -13 1530 0 1439 59 2691 254 3635 565 895 294 1411 664 1475 1056 6 42
10 648 10 1786 l0 1721 93 6 c50 4 191 11 312 17 401 18 587 44 900 124 306
78 442 138 514 225 55 66 76 106 107 195 34 101 38 261 10 365 -42 154 -161
296 -333 397 -74 43 -274 120 -409 157 -159 44 -498 111 -659 131 -382 48
-496 60 -512 54 -17 -6 -18 11 -23 300 l-5 305 -27 -52 c-140 -270 -542 -523
-1169 -737 -827 -282 -1896 -468 -3209 -559 -473 -33 -1361 -61 -1625 -52 -82
3 -260 8 -395 11 -880 21 -1837 108 -2580 236 -415 71 -1052 209 -964 209 5 0
66 -11 136 -25 1756 -344 4374 -388 6548 -109 1369 175 2417 461 2920 797 104
69 229 198 266 272 26 53 29 71 29 150 0 80 -3 97 -30 149 -103 205 -448 406
-975 569 -294 91 -765 197 -1147 258 -79 13 -143 26 -142 29 0 3 76 42 167 87
825 407 1590 945 1963 1379 279 324 402 588 402 859 1 509 -477 871 -1406
1064 -521 109 -1294 154 -2047 120z m1315 -234 c677 -53 1190 -187 1491 -390
152 -103 271 -251 313 -389 28 -90 28 -224 1 -332 -94 -376 -546 -844 -1250
-1295 -931 -595 -2308 -1177 -3820 -1614 -1458 -421 -2943 -686 -4235 -756
-270 -14 -921 -14 -1140 0 -979 65 -1614 285 -1843 639 -87 135 -113 298 -73
467 70 296 360 653 810 999 98 75 101 77 110 54 5 -13 28 -71 51 -131 l42
-107 -48 -53 c-155 -171 -217 -359 -165 -497 55 -144 249 -275 454 -305 26 -4
47 -5 47 -2 0 3 -21 16 -48 28 -71 35 -158 124 -172 179 -17 65 -6 135 36 218
20 39 38 72 40 72 1 0 18 -9 36 -19 81 -47 236 -51 416 -12 384 84 752 326
752 496 0 19 -26 103 -57 186 l-57 151 25 19 c33 25 506 260 711 353 300 136
856 366 883 366 5 0 21 -33 34 -73 41 -128 115 -267 211 -397 129 -175 142
-199 138 -256 -3 -54 -1 -52 -118 -89 -118 -37 -278 -116 -322 -159 -46 -45
-49 -78 -11 -103 40 -26 234 -23 367 6 207 45 446 144 511 211 65 68 41 217
-74 460 -125 263 -201 475 -201 560 l0 38 83 30 c99 36 501 165 687 221 467
140 1127 304 1739 431 l154 32 18 -23 c34 -45 80 -212 135 -488 66 -336 97
-455 128 -496 13 -17 47 -43 76 -59 50 -27 56 -28 139 -22 278 22 628 137 740
244 67 64 47 107 -54 121 -100 14 -325 -18 -458 -65 -33 -12 -42 -11 -73 3
-41 20 -48 42 -40 115 4 29 9 151 12 271 6 229 1 290 -38 425 -12 40 -19 74
-17 76 7 7 507 84 744 115 233 31 629 72 875 91 227 18 767 24 960 11 716 -48
1093 -216 1138 -507 5 -33 6 -84 2 -114 -4 -30 -6 -56 -5 -58 5 -5 91 120 113
163 60 119 68 256 19 350 -106 209 -431 338 -1007 402 -135 15 -247 18 -620
18 -457 0 -581 -6 -1025 -46 -346 -31 -945 -110 -1238 -162 l-78 -14 -26 36
c-15 20 -47 62 -71 94 -24 32 -42 60 -39 63 14 15 683 112 1054 153 400 45
618 62 1123 85 165 8 826 -5 1005 -19z m-3985 -489 c138 -24 234 -55 195 -63
-648 -135 -1551 -368 -2140 -552 -71 -23 -133 -41 -137 -41 -16 0 49 77 127
151 179 169 266 203 1000 394 384 99 443 112 585 124 170 14 228 12 370 -13z
m-2747 -774 l-6 -111 -36 -12 c-20 -6 -137 -50 -261 -96 -453 -170 -842 -337
-1191 -509 l-207 -102 -33 86 c-19 48 -35 90 -37 93 -7 15 612 304 978 456
243 101 790 313 797 308 2 -1 0 -52 -4 -113z m-2098 -22 c19 -31 -613 -279
-920 -360 -100 -26 -195 -37 -195 -22 0 62 669 320 965 373 119 21 142 22 150
9z m6384 -259 c60 -38 -183 -132 -262 -102 -31 12 -34 22 -9 43 58 51 226 87
271 59z m-3889 -1012 c23 -37 -99 -99 -195 -99 -89 0 -106 17 -61 59 54 51
233 79 256 40z m-1683 -2805 c-3 -3 -12 -4 -19 -1 -8 3 -5 6 6 6 11 1 17 -2
13 -5z m-1779 -391 l-3 -208 -190 -7 c-371 -14 -588 -11 -745 11 -156 23 -253
48 -229 61 20 11 369 131 519 178 178 57 588 167 638 171 10 1 12 -44 10 -206z
m12079 91 c112 -19 267 -48 345 -64 173 -36 696 -165 705 -173 9 -10 -17 -37
-36 -37 -9 0 -45 -9 -81 -21 -105 -33 -455 -72 -755 -84 -198 -8 -446 -24
-467 -31 -17 -5 -18 10 -18 226 l0 232 53 -7 c28 -4 143 -22 254 -41z m-11540
-616 c23 -43 25 -189 3 -233 -38 -76 -84 -13 -83 115 0 82 22 150 47 150 9 0
23 -15 33 -32z m10789 -124 c10 -69 -1 -179 -21 -210 -15 -23 -19 -25 -32 -12
-25 25 -39 139 -26 213 6 37 17 73 24 82 12 13 15 13 31 -6 9 -12 20 -42 24
-67z m-5064 -559 c557 -65 984 -315 1111 -651 l22 -59 3 -1583 c1 -1091 -1
-1589 -8 -1602 -11 -20 -30 -20 -1390 -20 -1360 0 -1379 0 -1390 20 -7 13 -9
511 -8 1602 l3 1583 22 59 c37 98 83 166 173 257 99 99 172 150 325 224 319
154 739 217 1137 170z"/>
<path d="M12772 12333 c19 -32 23 -52 23 -128 0 -83 -3 -96 -36 -165 -125
-260 -495 -604 -986 -916 -1150 -732 -3009 -1463 -4733 -1863 -946 -219 -1886
-359 -2860 -427 -310 -21 -1051 -30 -1310 -15 -341 20 -662 61 -860 111 -41
10 -108 26 -148 35 -214 49 -464 209 -539 347 l-18 33 -3 -84 c-4 -112 21
-194 86 -282 150 -201 503 -350 1025 -430 443 -68 1163 -77 1842 -23 1572 125
3559 571 5210 1171 450 164 781 299 1295 530 110 50 549 272 685 348 752 416
1236 817 1410 1168 108 218 95 403 -40 567 -54 66 -74 77 -43 23z"/>
<path d="M8565 3948 c-50 -18 -92 -55 -115 -103 -46 -96 -7 -211 90 -262 38
-21 56 -24 115 -21 88 4 142 38 180 112 30 59 31 106 6 161 -47 101 -168 151
-276 113z"/>
<path d="M1612 12619 c-250 -34 -488 -143 -590 -272 -82 -101 -98 -215 -47
-320 39 -78 138 -171 240 -224 471 -243 1232 -131 1420 209 27 47 30 63 30
138 0 75 -3 91 -29 138 -80 144 -288 265 -546 317 -92 19 -379 27 -478 14z"/>
</g>
</svg>
